<svg width="200" height="200" viewBox="0 0 200 200" xmlns="http://www.w3.org/2000/svg">
  <circle cx="100" cy="100" r="92" fill="none" stroke="currentColor" stroke-width="1" opacity="0.35"/>
  <circle cx="100" cy="100" r="70" fill="none" stroke="currentColor" stroke-width="1" opacity="0.35"/>
  <g stroke="currentColor" stroke-width="1.5" opacity="0.5">
    <line x1="100" y1="6" x2="100" y2="16"/>
    <line x1="100" y1="184" x2="100" y2="194"/>
    <line x1="6" y1="100" x2="16" y2="100"/>
    <line x1="184" y1="100" x2="194" y2="100"/>
  </g>
  <g stroke="currentColor" stroke-linecap="round">
    <line x1="100" y1="100" x2="100" y2="24" stroke-width="2.5"/>
    <line x1="100" y1="100" x2="170" y2="62" stroke-width="2"/>
    <line x1="100" y1="100" x2="170" y2="138" stroke-width="2"/>
    <line x1="100" y1="100" x2="30" y2="138" stroke-width="2"/>
    <line x1="100" y1="100" x2="30" y2="62" stroke-width="2"/>
  </g>
  <circle cx="100" cy="24" r="7" fill="none" stroke="currentColor" stroke-width="1.5"/>
  <circle cx="170" cy="62" r="5" fill="none" stroke="currentColor" stroke-width="1.5"/>
  <circle cx="170" cy="138" r="5" fill="none" stroke="currentColor" stroke-width="1.5"/>
  <circle cx="30" cy="138" r="5" fill="none" stroke="currentColor" stroke-width="1.5"/>
  <circle cx="30" cy="62" r="5" fill="none" stroke="currentColor" stroke-width="1.5"/>
  <circle cx="100" cy="100" r="16" fill="none" stroke="currentColor" stroke-width="2"/>
  <circle cx="100" cy="100" r="4" fill="currentColor"/>
</svg>
